<?xml version="1.0" encoding="UTF-8" standalone="no"?>
<svg
   width="24"
   height="24"
   version="1.1"
   id="svg4"
   sodipodi:docname="template-buat-icon.svg"
   inkscape:version="1.1.2 (0a00cf5339, 2022-02-04)"
   xmlns:inkscape="http://www.inkscape.org/namespaces/inkscape"
   xmlns:sodipodi="http://sodipodi.sourceforge.net/DTD/sodipodi-0.dtd"
   xmlns="http://www.w3.org/2000/svg"
   xmlns:svg="http://www.w3.org/2000/svg">
  <defs
     id="defs8" />
  <sodipodi:namedview
     id="namedview6"
     pagecolor="#ffffff"
     bordercolor="#666666"
     borderopacity="1.0"
     inkscape:pageshadow="2"
     inkscape:pageopacity="0.0"
     inkscape:pagecheckerboard="0"
     showgrid="false"
     showguides="true"
     inkscape:guide-bbox="true"
     inkscape:zoom="35.166667"
     inkscape:cx="11.985782"
     inkscape:cy="9.7393365"
     inkscape:window-width="1866"
     inkscape:window-height="1016"
     inkscape:window-x="54"
     inkscape:window-y="27"
     inkscape:window-maximized="1"
     inkscape:current-layer="svg4">
    <sodipodi:guide
       position="-1.1090047,22.805687"
       orientation="0,-1"
       id="guide825" />
    <sodipodi:guide
       position="1.2511848,16.635071"
       orientation="1,0"
       id="guide829" />
  </sodipodi:namedview>
  <path
     d="M21.142 22.495a1.6 1.6 0 0 1-1.147-.494l-4.397-4.38a8.93 8.93 0 0 1-5.105 1.588 9.006 9.006 0 0 1 0-18.011 9.006 9.006 0 0 1 7.398 14.14l4.417 4.367a1.643 1.643 0 0 1-1.165 2.79M10.548 4.485a5.739 5.739 0 1 0 0 11.477 5.739 5.739 0 0 0 0-11.478"
     style="stroke-width:2.20721"
     id="path2" />
  <rect
     style="fill:#782121;stroke-width:1.00157"
     id="rect855"
     width="21.571569"
     height="21.419714"
     x="1.2511848"
     y="1.194313" />
</svg>
