<?xml version="1.0" encoding="UTF-8" standalone="no"?>
<!-- Created with Inkscape (http://www.inkscape.org/) -->

<svg
   width="135"
   height="40"
   viewBox="0 0 35.718751 10.583333"
   version="1.1"
   id="svg5"
   inkscape:version="1.1.2 (0a00cf5339, 2022-02-04)"
   sodipodi:docname="logo-transfashion-text-135x40.svg"
   xmlns:inkscape="http://www.inkscape.org/namespaces/inkscape"
   xmlns:sodipodi="http://sodipodi.sourceforge.net/DTD/sodipodi-0.dtd"
   xmlns="http://www.w3.org/2000/svg"
   xmlns:svg="http://www.w3.org/2000/svg">
  <sodipodi:namedview
     id="namedview7"
     pagecolor="#ffffff"
     bordercolor="#666666"
     borderopacity="1.0"
     inkscape:pageshadow="2"
     inkscape:pageopacity="0.0"
     inkscape:pagecheckerboard="0"
     inkscape:document-units="mm"
     showgrid="false"
     inkscape:zoom="3.0075196"
     inkscape:cx="90.938726"
     inkscape:cy="75.97623"
     inkscape:window-width="1866"
     inkscape:window-height="1016"
     inkscape:window-x="54"
     inkscape:window-y="27"
     inkscape:window-maximized="1"
     inkscape:current-layer="layer1"
     fit-margin-top="0"
     fit-margin-left="0"
     fit-margin-right="0"
     fit-margin-bottom="0"
     units="px" />
  <defs
     id="defs2" />
  <g
     inkscape:label="Layer 1"
     inkscape:groupmode="layer"
     id="layer1"
     transform="translate(-16.659355,-15.420904)">
    <g
       id="path1125"
       style="font-weight:300;font-size:7.9951px;font-family:'Lexend Zetta';-inkscape-font-specification:'Lexend Zetta Light';fill:#000000;stroke:none;stroke-width:0.132292"
       transform="matrix(0.43875933,0,0,0.42376751,0.30092606,5.6733999)">
      <path
         style="color:#000000;-inkscape-font-specification:'Lexend Zetta Light';stroke:none"
         d="m 66.588759,32.551125 v -4.988943 h -2.158677 v -0.607627 h 5.004933 v 0.607627 h -2.222638 v 4.988943 z"
         id="path1152" />
      <path
         style="color:#000000;-inkscape-font-specification:'Lexend Zetta Light';stroke:none"
         d="m 64.363281,26.888672 v 0.740234 h 2.160156 v 4.988281 h 0.06445 0.691406 v -4.988281 h 2.222656 v -0.740234 z m 0.132813,0.132812 h 4.873047 v 0.47461 h -2.222657 v 4.988281 h -0.492187 v -4.988281 h -2.158203 z"
         id="path1154" />
    </g>
    <g
       id="path1127"
       style="font-weight:300;font-size:7.9951px;font-family:'Lexend Zetta';-inkscape-font-specification:'Lexend Zetta Light';fill:#000000;stroke:none;stroke-width:0.132292"
       transform="matrix(0.43875933,0,0,0.42376751,0.30092606,5.6733999)">
      <path
         style="color:#000000;-inkscape-font-specification:'Lexend Zetta Light';stroke:none"
         d="m 71.681627,32.551125 v -5.59657 h 3.078113 q 0.503692,0 0.903447,0.223862 0.40775,0.223863 0.647603,0.607628 0.239853,0.37577 0.239853,0.839485 0,0.519682 -0.255844,0.919437 -0.255843,0.39176 -0.695573,0.615623 -0.431736,0.223862 -0.975403,0.223862 h -2.318579 v 2.166673 z m 4.42129,0 -1.886844,-2.462491 0.631613,-0.191883 2.030756,2.654374 z m -3.797673,-2.7743 h 2.238628 q 0.383765,0 0.687579,-0.151907 0.303814,-0.151907 0.479706,-0.40775 0.175892,-0.255843 0.175892,-0.575647 0,-0.303814 -0.175892,-0.543667 -0.175892,-0.247848 -0.471711,-0.39176 -0.295818,-0.143912 -0.655598,-0.143912 h -2.278604 z"
         id="path1158" />
      <path
         style="color:#000000;-inkscape-font-specification:'Lexend Zetta Light';stroke:none"
         d="m 71.615234,26.888672 v 5.728515 h 0.06641 0.689453 v -2.166015 h 2.039062 l 1.660156,2.166015 h 0.0332 0.908203 l -1.765625,-2.310546 c 0.124303,-0.03634 0.269475,-0.02912 0.382812,-0.08789 0.302434,-0.153966 0.543809,-0.365849 0.720703,-0.636719 v -0.002 c 0.177578,-0.277464 0.267578,-0.597769 0.267578,-0.955078 0,-0.319886 -0.08414,-0.612536 -0.25,-0.873047 C 76.20142,27.48668 75.976326,27.27533 75.695311,27.121048 75.418475,26.96602 75.105358,26.888626 74.759765,26.888626 Z m 0.132813,0.132812 h 3.011719 c 0.325995,0 0.614924,0.07139 0.871093,0.214844 0.262652,0.144201 0.46901,0.337525 0.623047,0.583984 v 0.002 h 0.002 c 0.153263,0.240111 0.228516,0.504995 0.228516,0.802734 0,0.3356 -0.08255,0.629224 -0.246094,0.884766 -0.164149,0.250886 -0.386514,0.447516 -0.669922,0.591796 -0.119946,0.06219 -0.274519,0.05833 -0.408203,0.09375 l -0.287109,-0.375 -0.767578,0.232422 0.203125,0.265625 h -2.070313 v 2.166016 h -0.490234 z m 0.490234,0.47461 v 2.347656 h 0.06641 2.238282 c 0.26457,0 0.506243,-0.0539 0.71875,-0.160156 0.211261,-0.105631 0.380035,-0.249511 0.503906,-0.429688 0.124551,-0.181164 0.1875,-0.387952 0.1875,-0.613281 0,-0.215307 -0.06432,-0.411389 -0.189453,-0.582031 -0.12373,-0.173528 -0.290961,-0.312315 -0.496094,-0.41211 -0.206698,-0.100556 -0.434921,-0.15039 -0.683594,-0.15039 z m 0.132813,0.132812 h 2.21289 c 0.231034,0 0.439228,0.04539 0.626953,0.136719 0.188418,0.09166 0.334684,0.215207 0.445313,0.371094 h 0.002 c 0.109385,0.149162 0.162109,0.314129 0.162109,0.503906 0,0.201076 -0.05409,0.379103 -0.164062,0.539062 -0.110651,0.160948 -0.261254,0.289807 -0.455078,0.386719 -0.192578,0.09629 -0.411088,0.144532 -0.658203,0.144531 h -2.171875 z m 2.451172,2.34375 0.195312,0.25586 c -0.133916,0.02515 -0.247104,0.08984 -0.394531,0.08984 h -0.146485 l -0.15039,-0.195312 z m 0.28125,0.367188 1.640625,2.144531 h -0.609375 l -1.556641,-2.033203 h 0.04492 c 0.17749,0 0.319372,-0.07617 0.480469,-0.111328 z"
         id="path1160" />
    </g>
    <g
       id="path1129"
       style="font-weight:300;font-size:7.9951px;font-family:'Lexend Zetta';-inkscape-font-specification:'Lexend Zetta Light';fill:#000000;stroke:none;stroke-width:0.132292"
       transform="matrix(0.43875933,0,0,0.42376751,0.30092606,5.6733999)">
      <path
         style="color:#000000;-inkscape-font-specification:'Lexend Zetta Light';stroke:none"
         d="m 78.741299,32.551125 2.726329,-5.59657 h 0.78352 l 2.702344,5.59657 h -0.695574 l -1.99078,-4.109482 q -0.103936,-0.239853 -0.175892,-0.383765 -0.06396,-0.143911 -0.119927,-0.247848 -0.05597,-0.103936 -0.111931,-0.231858 -0.04797,-0.127921 -0.111932,-0.327799 l 0.183888,-0.008 q -0.08795,0.231858 -0.151907,0.37577 -0.05597,0.135917 -0.111932,0.255843 -0.05597,0.111931 -0.127921,0.247848 -0.06396,0.135917 -0.167897,0.35978 l -1.97479,4.069506 z m 1.127309,-1.463104 0.255843,-0.607627 h 3.421903 l 0.111931,0.607627 z"
         id="path1164" />
      <path
         style="color:#000000;-inkscape-font-specification:'Lexend Zetta Light';stroke:none"
         d="m 81.425781,26.888672 -2.791015,5.728515 h 0.107421 0.695313 l 0.710937,-1.46289 h 3.359375 l 0.708985,1.46289 h 0.841797 l -2.765625,-5.728515 z m 0.08398,0.132812 h 0.699218 l 2.638672,5.462891 h -0.548828 l -0.644531,-1.330078 h 0.08398 l -0.136719,-0.740235 h -0.304687 l -0.96875,-1.998046 -0.002,-0.0039 C 82.258166,28.25545 82.20034,28.127578 82.152288,28.031257 l -0.002,-0.0039 c -0.0424,-0.09517 -0.08333,-0.177906 -0.121094,-0.248047 -0.03568,-0.06626 -0.07136,-0.142444 -0.107422,-0.22461 l -0.002,-0.0039 c -0.0055,-0.01474 -0.01368,-0.04039 -0.01953,-0.05664 0.02987,-0.07267 0.05818,-0.134756 0.09375,-0.228516 l 0.03516,-0.09375 -0.371094,0.01563 0.02539,0.08398 c 0.02867,0.0896 0.05215,0.152262 0.07617,0.220703 -0.01241,0.02954 -0.02981,0.07439 -0.04102,0.09961 v 0.002 c -0.03697,0.08977 -0.0745,0.173022 -0.111328,0.251953 -0.03687,0.0737 -0.07948,0.156413 -0.126953,0.246094 v 0.002 c -0.04272,0.09078 -0.09865,0.21007 -0.167969,0.359375 l -0.951172,1.960937 h -0.28125 l -0.310547,0.740235 h 0.09961 0.132812 l -0.646484,1.330078 h -0.507813 z m 0.318359,0.646485 c 0.02799,0.06082 0.05576,0.121408 0.08398,0.173828 0.03626,0.06733 0.07701,0.147389 0.119141,0.242187 v 0.002 0.002 c 0.04709,0.09419 0.106786,0.221638 0.175781,0.380859 l 0.94336,1.945312 h -2.642579 l 0.923829,-1.904296 c 0.06881,-0.148203 0.12356,-0.26719 0.166015,-0.357422 l 0.002,-0.002 c 0.04761,-0.08997 0.08971,-0.17162 0.126953,-0.246094 v -0.002 c 0.03406,-0.07298 0.06761,-0.152877 0.101563,-0.234375 z m -1.660156,2.878906 h 0.128906 l -0.230469,0.474609 h -0.09766 z m 0.27539,0 h 2.769532 l 0.230468,0.474609 h -3.230468 z m 2.916016,0 h 0.132812 l 0.08008,0.439453 z"
         id="path1166" />
    </g>
    <g
       id="path1131"
       style="font-weight:300;font-size:7.9951px;font-family:'Lexend Zetta';-inkscape-font-specification:'Lexend Zetta Light';fill:#000000;stroke:none;stroke-width:0.132292"
       transform="matrix(0.43875933,0,0,0.42376751,0.30092606,5.6733999)">
      <path
         style="color:#000000;-inkscape-font-specification:'Lexend Zetta Light';stroke:none"
         d="m 87.200101,32.551125 v -5.59657 h 0.639608 l 4.81305,4.885006 -0.05597,0.143911 q -0.03198,-0.183887 -0.04797,-0.495696 -0.008,-0.319804 -0.02399,-0.687578 -0.008,-0.367775 -0.01599,-0.727554 0,-0.35978 -0.008,-0.639608 0,-0.287824 0,-0.423741 v -2.05474 h 0.623618 v 5.59657 h -0.663593 l -4.76508,-4.78107 0.01599,-0.167897 q 0.008,0.103936 0.01599,0.319804 0.01599,0.207872 0.03198,0.487701 0.01599,0.271833 0.03198,0.567652 0.01599,0.295819 0.02399,0.567652 0.008,0.271833 0.008,0.463716 v 2.542442 z"
         id="path1170" />
      <path
         style="color:#000000;-inkscape-font-specification:'Lexend Zetta Light';stroke:none"
         d="m 87.134766,26.888672 v 5.728515 h 0.06445 0.691406 v -2.609375 c 0,-0.128841 -0.0044,-0.283164 -0.0098,-0.464843 -0.0054,-0.181812 -0.01275,-0.37065 -0.02344,-0.56836 -0.01067,-0.197308 -0.02058,-0.387023 -0.03125,-0.568359 -0.0096,-0.168246 -0.01966,-0.311843 -0.0293,-0.441406 l 4.636719,4.652343 h 0.757812 v -5.728515 h -0.755859 v 2.121094 0.423828 0.002 c 0.0053,0.185742 0.0078,0.397356 0.0078,0.636719 v 0.002 c 0.0053,0.239842 0.01029,0.481389 0.01563,0.726562 v 0.002 c 0.01064,0.24483 0.01812,0.474766 0.02344,0.6875 0.002,0.03819 0.0075,0.0564 0.0098,0.0918 l -4.625,-4.693359 z m 0.130859,0.132812 H 87.8125 l 4.699219,4.767578 c 0.007,0.06513 0.01055,0.153411 0.01953,0.205079 l 0.04102,0.234375 0.158203,-0.404297 -0.0918,-0.09375 c -0.0079,-0.0812 -0.01813,-0.141169 -0.02344,-0.244141 v -0.002 c -0.0053,-0.212551 -0.01284,-0.441491 -0.02344,-0.685547 v -0.002 c -0.0053,-0.243865 -0.01228,-0.486018 -0.01758,-0.724609 0,-0.239611 -0.0025,-0.451721 -0.0078,-0.638672 V 29.009672 27.02139 H 93.0586 v 5.462891 h -0.570313 l -4.703125,-4.716797 c -0.0026,-0.05368 -0.0051,-0.122016 -0.0078,-0.158203 -1.98e-4,-0.0027 1.98e-4,-0.0091 0,-0.01172 l -0.13086,-0.002 -0.01953,0.199219 0.03125,0.03125 c 0.0016,0.03713 0.0023,0.05339 0.0039,0.09766 v 0.002 0.002 c 0.01062,0.138 0.02061,0.300098 0.03125,0.486328 0.01065,0.181108 0.02255,0.36929 0.0332,0.566407 0.01063,0.196716 0.01812,0.385774 0.02344,0.566406 0.0053,0.180764 0.0078,0.333935 0.0078,0.460937 v 2.476563 h -0.492187 z"
         id="path1172" />
    </g>
    <g
       id="path1133"
       style="font-weight:300;font-size:7.9951px;font-family:'Lexend Zetta';-inkscape-font-specification:'Lexend Zetta Light';fill:#000000;stroke:none;stroke-width:0.132292"
       transform="matrix(0.43875933,0,0,0.42376751,0.30092606,5.6733999)">
      <path
         style="color:#000000;-inkscape-font-specification:'Lexend Zetta Light';stroke:none"
         d="m 98.361259,32.631076 q -0.559657,0 -1.047358,-0.119927 Q 96.8262,32.391223 96.410455,32.159365 95.99471,31.919512 95.658916,31.559732 l 0.383764,-0.519681 q 0.503692,0.527676 1.079339,0.767529 0.575647,0.239853 1.23924,0.239853 0.527677,0 0.959412,-0.119926 0.431736,-0.127922 0.695579,-0.37577 0.26383,-0.247848 0.25584,-0.599632 0,-0.239853 -0.14391,-0.39176 -0.143915,-0.151907 -0.375773,-0.247848 -0.223863,-0.09594 -0.495696,-0.143912 -0.271834,-0.05597 -0.519682,-0.07995 -0.247848,-0.03198 -0.431735,-0.05597 -0.487701,-0.07196 -0.919437,-0.167897 -0.431735,-0.09594 -0.759534,-0.263838 -0.327799,-0.167897 -0.511687,-0.431736 -0.183887,-0.271833 -0.183887,-0.671588 0,-0.383765 0.175892,-0.679584 0.183888,-0.295818 0.511687,-0.503691 0.327799,-0.207873 0.759534,-0.311809 0.439731,-0.103936 0.943422,-0.103936 0.543667,0 0.983397,0.119926 0.447726,0.111932 0.799509,0.335795 0.35978,0.215867 0.60763,0.535671 l -0.40775,0.463716 q -0.23985,-0.279828 -0.551663,-0.471711 -0.303814,-0.199877 -0.671589,-0.303814 -0.359779,-0.103936 -0.767529,-0.103936 -0.479706,0 -0.863471,0.119927 -0.383765,0.119926 -0.615623,0.327799 -0.223862,0.207872 -0.223862,0.503691 0,0.271833 0.151906,0.447726 0.151907,0.175892 0.415746,0.279828 0.271833,0.103936 0.623617,0.167897 0.351785,0.05597 0.759535,0.111932 0.42374,0.04797 0.839485,0.127921 0.423741,0.07995 0.775528,0.231858 0.35178,0.143912 0.55965,0.40775 0.21587,0.263838 0.21587,0.711564 0,0.511686 -0.3198,0.903446 -0.31981,0.383765 -0.903448,0.599633 -0.575648,0.215868 -1.367163,0.215868 z"
         id="path1176" />
      <path
         style="color:#000000;-inkscape-font-specification:'Lexend Zetta Light';stroke:none"
         d="m 98.320312,26.832031 c -0.340343,0 -0.658375,0.03488 -0.957031,0.105469 -0.293875,0.07075 -0.555836,0.177367 -0.78125,0.320312 -0.225792,0.143186 -0.403022,0.319113 -0.53125,0.525391 l -0.002,0.002 c -0.123683,0.208013 -0.183594,0.446942 -0.183594,0.712891 0,0.276645 0.06429,0.515298 0.195313,0.708984 0.129371,0.185619 0.308578,0.337073 0.535156,0.453125 0.22447,0.114973 0.483052,0.204568 0.775391,0.269531 0.289553,0.06434 0.597283,0.119788 0.923828,0.167969 h 0.002 c 0.122633,0.016 0.266386,0.03532 0.431641,0.05664 h 0.002 c 0.162629,0.01573 0.334511,0.04124 0.513672,0.07813 v 0.002 h 0.002 c 0.17685,0.03121 0.336468,0.07696 0.480468,0.138672 0.147643,0.06109 0.264989,0.138978 0.353514,0.232422 0.084,0.08865 0.125,0.19903 0.125,0.345703 v 0.002 c 0.005,0.217647 -0.0701,0.39647 -0.234373,0.550781 -0.166912,0.156793 -0.387782,0.276357 -0.667969,0.359375 -0.281127,0.07809 -0.594633,0.117188 -0.941406,0.117188 -0.434425,0 -0.839409,-0.07794 -1.214844,-0.234375 -0.37419,-0.155913 -0.72608,-0.405653 -1.05664,-0.751953 l -0.05273,-0.05664 -0.464843,0.626953 0.03906,0.04102 c 0.228151,0.244447 0.482739,0.448124 0.765625,0.611328 h 0.002 c 0.282536,0.157568 0.589422,0.278105 0.919922,0.359375 0.330831,0.08135 0.684671,0.121094 1.0625,0.121094 0.53369,0 0.997528,-0.07329 1.390625,-0.220704 0.397363,-0.146972 0.709663,-0.352781 0.931633,-0.61914 0.22212,-0.272102 0.33399,-0.590409 0.33399,-0.945313 0,-0.308382 -0.0757,-0.562016 -0.23047,-0.751953 -0.14587,-0.185144 -0.34131,-0.328186 -0.58398,-0.427734 h -0.002 c -0.238536,-0.102849 -0.501792,-0.182366 -0.787104,-0.236328 h -0.002 C 99.13451,29.44276 98.85319,29.399261 98.570312,29.367187 h -0.002 c -0.270649,-0.03716 -0.522464,-0.07419 -0.755859,-0.111328 -0.230579,-0.04192 -0.433179,-0.09683 -0.609375,-0.164062 h -0.002 c -0.167231,-0.06613 -0.295891,-0.154289 -0.388672,-0.261719 -0.09025,-0.104505 -0.136719,-0.235396 -0.136719,-0.404297 0,-0.180527 0.06535,-0.327143 0.203125,-0.455078 0.145774,-0.130694 0.340766,-0.234663 0.589844,-0.3125 0.248354,-0.07761 0.529459,-0.117187 0.84375,-0.117187 0.266213,0 0.516549,0.03412 0.75,0.101562 0.239092,0.06757 0.457595,0.165513 0.654297,0.294922 0.202099,0.124368 0.381567,0.277514 0.537117,0.458984 l 0.0488,0.05859 0.49415,-0.5625 -0.0332,-0.04297 c -0.16975,-0.219029 -0.37764,-0.403152 -0.62304,-0.550781 l -0.002,-0.002 c -0.240038,-0.152412 -0.513431,-0.265866 -0.816408,-0.341797 h -0.002 c -0.299383,-0.08146 -0.633397,-0.123047 -1,-0.123047 z m 0,0.132813 c 0.357581,0 0.68032,0.03906 0.966797,0.117187 h 0.002 c 0.292373,0.07309 0.551286,0.183027 0.779301,0.328125 h 0.002 c 0.21722,0.130328 0.39509,0.296246 0.54883,0.484375 l -0.32226,0.367188 c -0.15196,-0.166659 -0.31612,-0.317416 -0.507821,-0.435547 h -0.002 c -0.207995,-0.136617 -0.436816,-0.241654 -0.6875,-0.3125 -0.246253,-0.07114 -0.509656,-0.105469 -0.787109,-0.105469 -0.325316,0 -0.61948,0.04076 -0.882813,0.123047 -0.262608,0.08207 -0.475301,0.195327 -0.638671,0.341797 h -0.002 c -0.160706,0.149227 -0.24414,0.338836 -0.24414,0.552734 0,0.193543 0.05568,0.360216 0.167969,0.490235 0.10944,0.12672 0.257702,0.22646 0.441406,0.298828 0.185885,0.07107 0.396989,0.128643 0.634765,0.171875 h 0.002 c 0.235061,0.0374 0.489481,0.07396 0.761718,0.111328 0.280815,0.03179 0.560458,0.07398 0.835938,0.126953 0.27827,0.0525 0.532191,0.129401 0.761718,0.228516 0.22564,0.09231 0.40223,0.222435 0.5332,0.388671 h 0.002 c 0.1323,0.1617 0.19922,0.382069 0.19922,0.669922 0,0.327344 -0.10041,0.611084 -0.30469,0.861328 -0.20439,0.244787 -0.49477,0.439445 -0.875002,0.580079 -0.374432,0.140412 -0.822087,0.210937 -1.34375,0.210937 -0.368379,0 -0.711813,-0.03864 -1.03125,-0.117187 C 97.010311,32.368635 96.71515,32.253138 96.443359,32.101562 96.187912,31.954189 95.959483,31.765831 95.75,31.548828 l 0.308594,-0.417969 c 0.32409,0.326037 0.666633,0.583916 1.037109,0.738282 0.392094,0.163372 0.815261,0.24414 1.265625,0.24414 0.356795,0 0.682044,-0.03928 0.976563,-0.121094 l 0.002,-0.002 c 0.295461,-0.08754 0.537777,-0.216954 0.722659,-0.390625 0.18751,-0.176152 0.2811,-0.397039 0.27539,-0.648437 0,-0.173131 -0.0542,-0.321658 -0.16211,-0.435547 -0.10301,-0.108727 -0.235725,-0.196931 -0.396486,-0.263672 h -0.002 c -0.153505,-0.06562 -0.323634,-0.1158 -0.507813,-0.148437 h -0.002 c -0.181896,-0.03739 -0.354814,-0.06388 -0.521484,-0.08008 h -0.002 c -0.164286,-0.0212 -0.307683,-0.04072 -0.429688,-0.05664 -0.323723,-0.04776 -0.627969,-0.102442 -0.914062,-0.166016 -0.283308,-0.06296 -0.531546,-0.148921 -0.744141,-0.257812 -0.20958,-0.107346 -0.370624,-0.244959 -0.486328,-0.410157 C 96.055668,28.964007 95.996,28.75436 95.996,28.497999 c 0,-0.245738 0.05713,-0.460072 0.167968,-0.646485 0.116853,-0.187171 0.279809,-0.347027 0.490235,-0.480468 0.211651,-0.134219 0.45651,-0.236854 0.738281,-0.304688 0.287652,-0.06799 0.596491,-0.101562 0.927734,-0.101562 z"
         id="path1178" />
    </g>
    <g
       id="path1135"
       style="font-weight:300;font-size:7.9951px;font-family:'Lexend Zetta';-inkscape-font-specification:'Lexend Zetta Light';fill:#000000;stroke:none;stroke-width:0.132292"
       transform="matrix(0.43875933,0,0,0.42376751,0.30092606,5.6733999)">
      <path
         style="color:#000000;-inkscape-font-specification:'Lexend Zetta Light';stroke:none"
         d="m 65.165631,42.545 v -5.59657 h 0.623618 V 42.545 Z m 0.247848,-2.414521 v -0.615622 h 3.853639 v 0.615622 z m 0.07995,-2.574422 V 36.94843 h 4.149457 v 0.607627 z"
         id="path1182" />
      <path
         style="color:#000000;-inkscape-font-specification:'Lexend Zetta Light';stroke:none"
         d="m 65.099609,36.882812 v 5.728516 h 0.06641 0.689453 v -2.414062 h 3.478515 v -0.748047 h -3.478515 v -1.826172 h 3.853515 v -0.740235 h -3.853515 -0.427735 z m 0.132813,0.13086 h 0.195312 v 0.609375 h 0.06641 0.228515 v 1.826172 h -0.375 v 0.748047 h 0.06641 0.308594 v 2.28125 h -0.490234 z m 0.328125,0 h 0.162109 v 0.476562 h -0.162109 z m 0.294922,0 h 3.720703 v 0.476562 h -3.720703 z m -0.375,2.566406 h 0.242187 v 0.484375 h -0.242187 z m 0.375,0 h 3.345703 v 0.484375 h -3.345703 z"
         id="path1184" />
    </g>
    <g
       id="path1137"
       style="font-weight:300;font-size:7.9951px;font-family:'Lexend Zetta';-inkscape-font-specification:'Lexend Zetta Light';fill:#000000;stroke:none;stroke-width:0.132292"
       transform="matrix(0.43875933,0,0,0.42376751,0.30092606,5.6733999)">
      <path
         style="color:#000000;-inkscape-font-specification:'Lexend Zetta Light';stroke:none"
         d="m 71.034017,42.545 2.726329,-5.59657 h 0.78352 l 2.702343,5.59657 h -0.695573 l -1.99078,-4.109482 q -0.103936,-0.239853 -0.175892,-0.383765 -0.06396,-0.143911 -0.119927,-0.247848 -0.05597,-0.103936 -0.111931,-0.231858 -0.04797,-0.127921 -0.111932,-0.327799 l 0.183888,-0.008 q -0.08795,0.231858 -0.151907,0.37577 -0.05597,0.135917 -0.111932,0.255843 -0.05597,0.111931 -0.127921,0.247848 -0.06396,0.135917 -0.167897,0.35978 L 71.689615,42.545 Z m 1.127309,-1.463104 0.255843,-0.607627 h 3.421903 l 0.111931,0.607627 z"
         id="path1188" />
      <path
         style="color:#000000;-inkscape-font-specification:'Lexend Zetta Light';stroke:none"
         d="m 73.71875,36.882812 -2.791016,5.728516 h 0.105469 0.697266 l 0.710937,-1.462891 h 3.359375 l 0.708985,1.462891 h 0.841796 l -2.765625,-5.728516 z m 0.08203,0.13086 h 0.701172 l 2.638672,5.464844 h -0.548828 l -0.644531,-1.330079 h 0.08398 l -0.136719,-0.740234 h -0.304687 l -0.96875,-1.998047 -0.002,-0.0039 c -0.06795,-0.156667 -0.125776,-0.284539 -0.173829,-0.380859 l -0.002,-0.0039 c -0.0424,-0.09517 -0.08333,-0.177906 -0.121093,-0.248047 -0.03568,-0.06626 -0.07136,-0.142443 -0.107422,-0.224609 l -0.002,-0.0039 c -0.0057,-0.0152 -0.01348,-0.0418 -0.01953,-0.05859 0.02966,-0.07223 0.05653,-0.133603 0.0918,-0.226562 l 0.03711,-0.09375 -0.371094,0.01563 0.02539,0.08203 c 0.02875,0.08983 0.0521,0.154091 0.07617,0.222656 -0.01241,0.02954 -0.02981,0.07439 -0.04102,0.09961 -0.03697,0.08977 -0.0745,0.174976 -0.111328,0.253907 -0.03687,0.0737 -0.07948,0.154463 -0.126954,0.24414 v 0.002 l -0.002,0.002 c -0.04272,0.09078 -0.09865,0.21007 -0.167968,0.359375 h 0.002 l -0.951172,1.960937 h -0.28125 L 72.0625,41.148437 h 0.09961 0.132813 l -0.646485,1.330079 h -0.507812 z m 0.322266,0.648437 c 0.02769,0.06006 0.05411,0.121986 0.08203,0.173828 0.03626,0.06733 0.07701,0.14739 0.119141,0.242188 v 0.002 0.002 c 0.04709,0.09419 0.106786,0.219686 0.175781,0.378906 v 0.002 l 0.943359,1.945312 h -2.642578 l 0.923828,-1.904297 c 0.06881,-0.148202 0.12356,-0.267189 0.166016,-0.357422 l 0.002,-0.002 c 0.04761,-0.08998 0.08971,-0.173567 0.126953,-0.248047 0.03416,-0.07321 0.06946,-0.152601 0.103516,-0.234375 z m -1.66211,2.878907 h 0.128907 l -0.230469,0.474609 h -0.09766 z m 0.275391,0 h 2.769531 l 0.230469,0.474609 h -3.230469 z m 2.916016,0 h 0.130859 l 0.08203,0.4375 z"
         id="path1190" />
    </g>
    <g
       id="path1139"
       style="font-weight:300;font-size:7.9951px;font-family:'Lexend Zetta';-inkscape-font-specification:'Lexend Zetta Light';fill:#000000;stroke:none;stroke-width:0.132292"
       transform="matrix(0.43875933,0,0,0.42376751,0.30092606,5.6733999)">
      <path
         style="color:#000000;-inkscape-font-specification:'Lexend Zetta Light';stroke:none"
         d="m 81.739442,42.624951 q -0.559657,0 -1.047358,-0.119927 -0.487701,-0.119926 -0.903447,-0.351784 -0.415745,-0.239853 -0.751539,-0.599633 l 0.383765,-0.519681 q 0.503691,0.527676 1.079338,0.767529 0.575648,0.239853 1.239241,0.239853 0.527676,0 0.959412,-0.119926 0.431735,-0.127922 0.695574,-0.37577 0.263838,-0.247848 0.255843,-0.599632 0,-0.239853 -0.143912,-0.39176 -0.143912,-0.151907 -0.37577,-0.247848 -0.223863,-0.09594 -0.495696,-0.143912 -0.271833,-0.05597 -0.519681,-0.07995 -0.247849,-0.03198 -0.431736,-0.05597 -0.487701,-0.07196 -0.919436,-0.167897 -0.431736,-0.09594 -0.759535,-0.263838 -0.327799,-0.167897 -0.511686,-0.431736 -0.183888,-0.271833 -0.183888,-0.671588 0,-0.383765 0.175893,-0.679584 0.183887,-0.295818 0.511686,-0.503691 0.327799,-0.207873 0.759535,-0.311809 0.43973,-0.103936 0.943421,-0.103936 0.543667,0 0.983398,0.119926 0.447725,0.111932 0.79951,0.335795 0.359779,0.215867 0.607627,0.535671 l -0.40775,0.463716 q -0.239853,-0.279828 -0.551662,-0.471711 -0.303814,-0.199877 -0.671588,-0.303814 -0.35978,-0.103936 -0.76753,-0.103936 -0.479706,0 -0.863471,0.119927 -0.383764,0.119926 -0.615622,0.327799 -0.223863,0.207872 -0.223863,0.503691 0,0.271833 0.151907,0.447726 0.151907,0.175892 0.415745,0.279828 0.271833,0.103936 0.623618,0.167897 0.351784,0.05597 0.759534,0.111932 0.423741,0.04797 0.839486,0.127921 0.42374,0.07995 0.775525,0.231858 0.351784,0.143912 0.559657,0.40775 0.215867,0.263838 0.215867,0.711564 0,0.511686 -0.319804,0.903446 -0.319804,0.383765 -0.903446,0.599633 -0.575647,0.215868 -1.367162,0.215868 z"
         id="path1194" />
      <path
         style="color:#000000;-inkscape-font-specification:'Lexend Zetta Light';stroke:none"
         d="m 81.699219,36.826172 c -0.340344,0 -0.66033,0.03488 -0.958985,0.105469 -0.293876,0.07075 -0.553883,0.177367 -0.779297,0.320312 -0.225792,0.143186 -0.404975,0.319112 -0.533203,0.525391 -0.123683,0.208012 -0.185547,0.448895 -0.185547,0.714843 0,0.276646 0.06429,0.513346 0.195313,0.707032 v 0.002 h 0.002 c 0.12937,0.185619 0.308578,0.337073 0.535156,0.453125 0.22447,0.114973 0.483051,0.204568 0.775391,0.269531 0.289553,0.06434 0.597283,0.119787 0.923828,0.167969 h 0.002 c 0.122633,0.016 0.266386,0.03532 0.431641,0.05664 h 0.002 c 0.162629,0.01573 0.332559,0.04124 0.511719,0.07813 h 0.002 v 0.002 c 0.17685,0.03121 0.338421,0.07696 0.482422,0.138671 0.147643,0.06109 0.26499,0.138979 0.353515,0.232422 0.08399,0.08865 0.125,0.199031 0.125,0.345703 v 0.002 c 0.0049,0.217646 -0.07011,0.39647 -0.234375,0.550781 -0.166909,0.156793 -0.389736,0.276357 -0.669922,0.359375 -0.280686,0.07777 -0.593388,0.117187 -0.939453,0.117187 -0.434425,0 -0.839408,-0.07794 -1.214843,-0.234375 C 80.1512,41.584322 79.79931,41.334582 79.46875,40.988281 l -0.05469,-0.05664 -0.46289,0.626953 0.03711,0.04102 c 0.228151,0.244448 0.484692,0.448125 0.767578,0.611328 0.282536,0.157568 0.589422,0.276152 0.919922,0.357422 0.330831,0.08135 0.686624,0.123047 1.064453,0.123047 0.53369,0 0.995576,-0.07329 1.388672,-0.220703 0.397369,-0.146972 0.709674,-0.35278 0.931641,-0.619141 0.222124,-0.272101 0.335937,-0.590408 0.335937,-0.945312 0,-0.308382 -0.07569,-0.562016 -0.230468,-0.751953 -0.14619,-0.185547 -0.34253,-0.330112 -0.585938,-0.429688 v 0.002 c -0.23952,-0.103429 -0.502346,-0.182231 -0.789062,-0.236328 -0.278216,-0.0535 -0.55828,-0.09676 -0.841797,-0.128906 h -0.002 C 81.677297,39.324263 81.424307,39.28704 81.191406,39.25 h -0.002 c -0.230418,-0.042 -0.433342,-0.09676 -0.609375,-0.164063 -0.168081,-0.06621 -0.29557,-0.153916 -0.388672,-0.261718 -0.09025,-0.104505 -0.136719,-0.235397 -0.136719,-0.404297 0,-0.180527 0.06535,-0.327143 0.203125,-0.455078 0.145659,-0.130228 0.341408,-0.236817 0.589844,-0.314453 0.248354,-0.07761 0.529459,-0.115235 0.84375,-0.115235 0.266213,0 0.516548,0.03217 0.75,0.09961 0.239091,0.06757 0.455642,0.167466 0.652344,0.296875 h 0.002 c 0.202097,0.124367 0.381563,0.277513 0.537109,0.458984 l 0.04883,0.05859 0.49414,-0.5625 -0.0332,-0.04297 c -0.169749,-0.219031 -0.379595,-0.403152 -0.625,-0.550781 l -0.002,-0.002 c -0.23983,-0.15228 -0.511793,-0.265866 -0.814453,-0.341797 -0.29983,-0.08177 -0.634645,-0.123047 -1.001953,-0.123047 z m 0,0.132812 c 0.35758,0 0.680319,0.03906 0.966797,0.117188 0.292371,0.07309 0.553237,0.183026 0.78125,0.328125 h 0.002 c 0.217618,0.130571 0.394918,0.295785 0.548828,0.484375 l -0.322266,0.367187 c -0.152292,-0.167028 -0.317555,-0.317263 -0.509765,-0.435547 -0.208383,-0.137093 -0.43818,-0.241487 -0.689454,-0.3125 -0.246254,-0.07114 -0.507702,-0.105468 -0.785156,-0.105468 -0.325316,0 -0.61948,0.04075 -0.882812,0.123047 -0.262608,0.08206 -0.477255,0.195327 -0.640625,0.341796 -0.160707,0.149228 -0.246094,0.338837 -0.246094,0.552735 0,0.193543 0.05568,0.360215 0.167969,0.490234 0.10944,0.126721 0.257703,0.226461 0.441406,0.298828 h 0.002 c 0.185885,0.07107 0.396989,0.128643 0.634766,0.171875 h 0.002 c 0.23506,0.0374 0.487528,0.07397 0.759765,0.111328 h 0.002 c 0.280815,0.03179 0.558504,0.07398 0.833984,0.126954 0.27827,0.0525 0.532192,0.129401 0.761719,0.228515 h 0.002 c 0.225637,0.09231 0.402228,0.222436 0.533203,0.388672 0.132299,0.161699 0.201172,0.382069 0.201172,0.669922 0,0.327343 -0.100406,0.611084 -0.304688,0.861328 -0.204438,0.245326 -0.49418,0.439227 -0.875,0.580078 -0.374431,0.140412 -0.822087,0.210938 -1.34375,0.210938 -0.368379,0 -0.713766,-0.03864 -1.033203,-0.117188 -0.319156,-0.07848 -0.613403,-0.194556 -0.884765,-0.345703 h -0.002 C 79.565034,41.948262 79.338255,41.75804 79.128906,41.541016 L 79.435547,41.125 c 0.324436,0.326656 0.668123,0.583723 1.039062,0.738281 0.392095,0.163373 0.815261,0.244141 1.265625,0.244141 0.356795,0 0.682043,-0.04124 0.976563,-0.123047 0.295461,-0.08754 0.53778,-0.216954 0.722656,-0.390625 0.187517,-0.176153 0.283057,-0.397039 0.277344,-0.648438 0,-0.173131 -0.05421,-0.32361 -0.16211,-0.4375 -0.103357,-0.109099 -0.236936,-0.19489 -0.398437,-0.261718 -0.153937,-0.06597 -0.322983,-0.115684 -0.507813,-0.148438 h -0.002 c -0.1819,-0.03739 -0.356762,-0.06388 -0.523437,-0.08008 h -0.002 c -0.163552,-0.0211 -0.306087,-0.04077 -0.427735,-0.05664 h -0.002 C 81.36829,39.913236 81.064657,39.858363 80.779156,39.794921 80.495848,39.731961 80.24761,39.644046 80.035015,39.535155 79.82467,39.427346 79.662687,39.291166 79.546875,39.125 79.433361,38.956494 79.375,38.747813 79.375,38.492187 c 0,-0.24504 0.0558,-0.458493 0.166016,-0.644531 0.116955,-0.188145 0.278962,-0.350397 0.490234,-0.484375 0.211652,-0.134218 0.458463,-0.234901 0.740234,-0.302734 0.287651,-0.06799 0.596491,-0.101563 0.927735,-0.101563 z"
         id="path1196" />
    </g>
    <g
       id="path1141"
       style="font-weight:300;font-size:7.9951px;font-family:'Lexend Zetta';-inkscape-font-specification:'Lexend Zetta Light';fill:#000000;stroke:none;stroke-width:0.132292"
       transform="matrix(0.43875933,0,0,0.42376751,0.30092606,5.6733999)">
      <path
         style="color:#000000;-inkscape-font-specification:'Lexend Zetta Light';stroke:none"
         d="m 91.701327,42.545 v -5.59657 h 0.623618 V 42.545 Z m -4.861021,0 v -5.59657 h 0.623618 V 42.545 Z m 0.303814,-2.454496 0.008,-0.607628 h 4.81305 v 0.607628 z"
         id="path1200" />
      <path
         style="color:#000000;-inkscape-font-specification:'Lexend Zetta Light';stroke:none"
         d="m 86.773437,36.882812 v 5.728516 h 0.06641 0.689453 V 40.15625 h 4.105469 v 2.455078 h 0.06641 0.689453 v -5.728516 h -0.755859 v 2.533204 h -4.105469 v -2.533204 z m 0.132813,0.13086 h 0.492187 v 2.402344 h -0.3125 l -0.0098,0.740234 h 0.06836 0.253906 v 2.322266 H 86.90625 Z m 4.861328,0 h 0.492188 v 5.464844 H 91.767578 V 40.15625 h 0.263672 v -0.740234 h -0.263672 z m -4.550781,2.535156 h 0.18164 v 0.474609 h -0.1875 z m 0.3125,0 h 4.105469 v 0.474609 h -4.105469 z m 4.238281,0 h 0.130859 v 0.474609 h -0.130859 z"
         id="path1202" />
    </g>
    <g
       id="path1143"
       style="font-weight:300;font-size:7.9951px;font-family:'Lexend Zetta';-inkscape-font-specification:'Lexend Zetta Light';fill:#000000;stroke:none;stroke-width:0.132292"
       transform="matrix(0.43875933,0,0,0.42376751,0.30092606,5.6733999)">
      <path
         style="color:#000000;-inkscape-font-specification:'Lexend Zetta Light';stroke:none"
         d="m 95.323101,42.545 v -0.631613 h 1.463104 V 37.580042 H 95.323101 V 36.94843 h 3.549825 v 0.631612 h -1.463104 v 4.333345 h 1.463104 V 42.545 Z"
         id="path1206" />
      <path
         style="color:#000000;-inkscape-font-specification:'Lexend Zetta Light';stroke:none"
         d="m 95.257812,36.882812 v 0.763672 h 1.462891 v 4.201172 h -1.462891 v 0.763672 h 0.06445 3.617187 v -0.763672 h -1.462891 v -4.201172 h 1.462891 v -0.763672 z m 0.13086,0.13086 h 3.417969 v 0.5 H 97.34375 v 4.466797 h 1.462891 v 0.498047 h -3.417969 v -0.498047 h 1.46289 v -4.466797 h -1.46289 z"
         id="path1208" />
    </g>
    <g
       id="path1145"
       style="font-weight:300;font-size:7.9951px;font-family:'Lexend Zetta';-inkscape-font-specification:'Lexend Zetta Light';fill:#000000;stroke:none;stroke-width:0.132292"
       transform="matrix(0.43875933,0,0,0.42376751,0.30092606,5.6733999)">
      <path
         style="color:#000000;-inkscape-font-specification:'Lexend Zetta Light';stroke:none"
         d="m 104.66936,42.624951 q -0.74354,0 -1.36716,-0.215868 -0.61562,-0.223863 -1.07134,-0.607628 -0.44773,-0.39176 -0.69558,-0.911441 -0.24785,-0.527677 -0.24785,-1.127309 0,-0.607628 0.24785,-1.127309 0.24785,-0.519682 0.69558,-0.911442 0.45572,-0.399755 1.07134,-0.615622 0.62362,-0.215868 1.36716,-0.215868 0.74354,0 1.35917,0.215868 0.61562,0.215867 1.07134,0.607627 0.45572,0.39176 0.70357,0.919437 0.25584,0.519681 0.25584,1.127309 0,0.599632 -0.25584,1.127309 -0.24785,0.519681 -0.70357,0.911441 -0.45572,0.39176 -1.07134,0.607628 -0.61563,0.215868 -1.35917,0.215868 z m 0,-0.615623 q 0.59963,0 1.10332,-0.167897 0.5037,-0.167897 0.87147,-0.471711 0.36777,-0.311809 0.56765,-0.719559 0.19988,-0.40775 0.19988,-0.887456 0,-0.479706 -0.19988,-0.895451 -0.19988,-0.415746 -0.56765,-0.719559 -0.36777,-0.303814 -0.87147,-0.471711 -0.50369,-0.175893 -1.10332,-0.175893 -0.60763,0 -1.11132,0.175893 -0.50369,0.167897 -0.87146,0.471711 -0.35978,0.303813 -0.55966,0.719559 -0.19188,0.415745 -0.19188,0.895451 0,0.479706 0.19188,0.887456 0.19988,0.40775 0.55966,0.719559 0.36777,0.303814 0.87146,0.471711 0.50369,0.167897 1.11132,0.167897 z"
         id="path1212" />
      <path
         style="color:#000000;-inkscape-font-specification:'Lexend Zetta Light';stroke:none"
         d="m 104.66992,36.826172 c -0.50209,0 -0.96524,0.07218 -1.38867,0.21875 v 0.002 c -0.41763,0.146444 -0.78327,0.354605 -1.09375,0.626953 -0.30484,0.266735 -0.54378,0.579 -0.71289,0.933594 -0.16955,0.355495 -0.25391,0.742171 -0.25391,1.15625 0,0.408868 0.0846,0.793786 0.25391,1.154297 0.16911,0.354593 0.40805,0.666859 0.71289,0.933593 0.31019,0.261215 0.6749,0.467542 1.0918,0.619141 h 0.002 c 0.42343,0.14657 0.88658,0.220703 1.38867,0.220703 0.5021,0 0.96259,-0.07404 1.38086,-0.220703 0.4174,-0.14636 0.78137,-0.352284 1.0918,-0.619141 0.31028,-0.266734 0.55147,-0.578751 0.7207,-0.933593 0.17485,-0.360635 0.26172,-0.745136 0.26172,-1.154297 0,-0.413704 -0.0872,-0.801103 -0.26172,-1.15625 v -0.002 c -0.16915,-0.359613 -0.41066,-0.672923 -0.7207,-0.939453 -0.31043,-0.266857 -0.6744,-0.472782 -1.0918,-0.619141 -0.41827,-0.146663 -0.87876,-0.220703 -1.38086,-0.220703 z m 0,0.132812 c 0.48929,0 0.93337,0.06978 1.33594,0.210938 0.40343,0.141463 0.75358,0.340213 1.05078,0.595703 0.29718,0.255467 0.52622,0.555072 0.6875,0.898437 0.16605,0.337289 0.24805,0.703808 0.24805,1.09961 0,0.390347 -0.0818,0.754722 -0.24805,1.097656 -0.16123,0.338065 -0.39016,0.635013 -0.6875,0.890625 -0.2972,0.25549 -0.64735,0.452286 -1.05078,0.59375 -0.40257,0.141161 -0.84665,0.212891 -1.33594,0.212891 -0.48929,0 -0.93763,-0.07164 -1.3457,-0.212891 v 0.002 c -0.40304,-0.146561 -0.75182,-0.34601 -1.04883,-0.595703 l -0.002,-0.002 c -0.2911,-0.255185 -0.51678,-0.551184 -0.67774,-0.888672 -0.16113,-0.343058 -0.24218,-0.707015 -0.24218,-1.097656 0,-0.396091 0.0813,-0.762197 0.24218,-1.09961 0.16135,-0.338314 0.38756,-0.635013 0.67969,-0.890625 0.29715,-0.260658 0.64564,-0.462136 1.04883,-0.603515 0.40807,-0.141254 0.85641,-0.210938 1.3457,-0.210938 z m 0,0.47461 c -0.41147,0 -0.7892,0.0597 -1.13281,0.179687 -0.34257,0.114189 -0.64058,0.2762 -0.89258,0.484375 -0.2466,0.208242 -0.44088,0.454774 -0.57812,0.740235 v 0.002 c -0.13198,0.285952 -0.19727,0.595205 -0.19727,0.923828 0,0.328623 0.0651,0.633187 0.19727,0.914062 v 0.002 h 0.002 c 0.13722,0.279934 0.32816,0.526987 0.57422,0.740235 h 0.002 c 0.252,0.208175 0.55001,0.370186 0.89258,0.484375 0.34336,0.114454 0.72163,0.171875 1.13281,0.171875 0.40593,0 0.77979,-0.05745 1.12305,-0.171875 0.34257,-0.114189 0.64058,-0.2762 0.89258,-0.484375 h 0.002 c 0.25152,-0.213247 0.44661,-0.459988 0.58398,-0.740235 0.13777,-0.281038 0.20704,-0.587024 0.20704,-0.916015 0,-0.328991 -0.0695,-0.639664 -0.20704,-0.925781 -0.13739,-0.285771 -0.33387,-0.532005 -0.58593,-0.740235 -0.25158,-0.207823 -0.54878,-0.370221 -0.89063,-0.484375 h -0.002 c -0.34303,-0.119548 -0.71752,-0.179687 -1.12305,-0.179687 z m 0,0.132812 c 0.39329,0 0.752,0.05731 1.08008,0.171875 h 0.002 c 0.32903,0.109674 0.61125,0.264028 0.84961,0.460938 0.2383,0.196854 0.42167,0.428709 0.55078,0.697265 0.12895,0.26821 0.19336,0.556571 0.19336,0.867188 0,0.310617 -0.0646,0.594794 -0.19336,0.857422 -0.12913,0.263419 -0.31194,0.494768 -0.55078,0.697265 -0.23836,0.19691 -0.52058,0.351264 -0.84961,0.460938 -0.32832,0.109441 -0.68845,0.164062 -1.08203,0.164062 -0.39899,0 -0.76357,-0.05465 -1.09179,-0.164062 -0.32812,-0.109373 -0.60971,-0.262852 -0.84766,-0.458985 l -0.002,-0.002 c -0.23261,-0.202055 -0.41409,-0.434348 -0.54297,-0.697265 h 0.002 c -0.12366,-0.262791 -0.18555,-0.546438 -0.18555,-0.857422 0,-0.310316 0.0622,-0.599304 0.18555,-0.867188 v -0.002 c 0.12899,-0.267798 0.30891,-0.499036 0.54102,-0.695312 0.23836,-0.19691 0.52059,-0.351264 0.84961,-0.460938 h 0.002 c 0.32798,-0.114532 0.69114,-0.171875 1.08984,-0.171875 z"
         id="path1214" />
    </g>
    <g
       id="path1147"
       style="font-weight:300;font-size:7.9951px;font-family:'Lexend Zetta';-inkscape-font-specification:'Lexend Zetta Light';fill:#000000;stroke:none;stroke-width:0.132292"
       transform="matrix(0.43875933,0,0,0.42376751,0.30092606,5.6733999)">
      <path
         style="color:#000000;-inkscape-font-specification:'Lexend Zetta Light';stroke:none"
         d="m 110.58573,42.545 v -5.59657 h 0.63961 l 4.81305,4.885006 -0.056,0.143911 q -0.032,-0.183887 -0.048,-0.495696 -0.008,-0.319804 -0.024,-0.687578 -0.008,-0.367775 -0.016,-0.727554 0,-0.35978 -0.008,-0.639608 0,-0.287824 0,-0.423741 v -2.05474 h 0.62362 V 42.545 h -0.66359 l -4.76508,-4.78107 0.016,-0.167897 q 0.008,0.103936 0.016,0.319804 0.016,0.207872 0.032,0.487701 0.016,0.271833 0.032,0.567652 0.016,0.295819 0.024,0.567652 0.008,0.271833 0.008,0.463716 V 42.545 Z"
         id="path1218" />
      <path
         style="color:#000000;-inkscape-font-specification:'Lexend Zetta Light';stroke:none"
         d="m 110.51953,36.882812 v 5.728516 h 0.0664 0.68945 v -2.609375 c 0,-0.128841 -0.002,-0.283164 -0.008,-0.464844 -0.005,-0.181812 -0.0127,-0.372602 -0.0234,-0.570312 -0.0107,-0.197309 -0.0225,-0.385071 -0.0332,-0.566406 -0.01,-0.167502 -0.0177,-0.310293 -0.0273,-0.439454 l 4.63477,4.650391 h 0.75781 v -5.728516 h -0.75586 v 2.121094 0.423828 0.002 c 0.005,0.185743 0.008,0.397356 0.008,0.636719 v 0.002 c 0.005,0.239842 0.0103,0.48139 0.0156,0.726563 v 0.002 c 0.0106,0.244829 0.0201,0.472813 0.0254,0.685547 v 0.002 c 0.002,0.039 0.007,0.05767 0.01,0.09375 L 111.2542,36.883 Z m 0.13281,0.13086 h 0.54493 l 4.70117,4.771484 c 0.007,0.06439 0.0106,0.151944 0.0195,0.203125 l 0.0391,0.234375 0.1582,-0.404297 -0.0918,-0.09375 c -0.008,-0.0812 -0.0181,-0.141169 -0.0234,-0.24414 v -0.002 c -0.005,-0.212552 -0.0128,-0.441491 -0.0234,-0.685547 v -0.002 c -0.005,-0.243866 -0.0103,-0.486018 -0.0156,-0.72461 0,-0.23961 -0.002,-0.451721 -0.008,-0.638672 v -0.423828 -1.990234 h 0.49023 v 5.464844 h -0.57031 l -4.70117,-4.71875 c -0.003,-0.05347 -0.005,-0.122231 -0.008,-0.158204 -1.6e-4,-0.0022 1.7e-4,-0.0076 0,-0.0098 l -0.13281,-0.002 -0.0195,0.199218 0.0312,0.03125 c 0.002,0.03713 0.002,0.05339 0.004,0.09766 v 0.002 0.002 c 0.0106,0.137999 0.0225,0.300098 0.0332,0.486328 0.0107,0.181108 0.0206,0.36929 0.0312,0.566406 0.0106,0.196715 0.0181,0.385776 0.0234,0.566407 0.005,0.180764 0.008,0.333935 0.008,0.460937 v 2.476563 h -0.49024 z"
         id="path1220" />
    </g>
    <path
       id="path2705-6"
       style="fill:#000000;stroke:#1a1a1a;stroke-width:0.0293492"
       d="m 23.458082,19.294902 0.0034,1.773845 1.821998,-1.779503 z m -2.45056,6.34539 -0.0064,-9.760775 h -1.563881 c -1.456563,0.04972 -2.200658,1.553068 -2.280662,2.30893 l -0.07454,-2.074725 c 0,-0.200859 0.241427,-0.377977 0.507747,-0.377977 h 7.945126 c 0.249319,0.007 0.545626,0.202301 0.541328,0.430178 l -0.08377,2.014049 C 25.91766,17.473808 25.353052,15.92797 23.856206,15.879517 H 22.63303 v 8.285257 z"
       sodipodi:nodetypes="cccccccccsccccccc" />
  </g>
</svg>
