<svg width="32" height="32" viewBox="0 0 32 32" version="1.1" xmlns="http://www.w3.org/2000/svg">
  <title>icon-social-facebook</title>
  <path d="M21.488 11.12v9.76c0 0.336-0.272 0.608-0.608 0.608h-2.792v-4.256h1.424l0.216-1.656h-1.6v-1.056c0-0.48 0.128-0.8 0.8-0.8h0.872v-1.48c-0.362-0.041-0.781-0.064-1.206-0.064-0.023 0-0.046 0-0.069 0-0.040-0.003-0.090-0.005-0.141-0.005-1.105 0-2 0.895-2 2 0 0.067 0.003 0.133 0.010 0.197l-0.001 1.216h-1.448v1.656h1.432v4.248h-5.256c-0.336 0-0.608-0.272-0.608-0.608v-9.76c0-0.336 0.272-0.608 0.608-0.608h9.76c0.336 0 0.608 0.272 0.608 0.608z"></path>
</svg>