<svg width="32" height="32"  viewBox="0 0 32 32" version="1.1" xmlns="http://www.w3.org/2000/svg">
  <title>icon-social-instagram</title>
  <path d="M21.448 18.264c0.003 0.049 0.004 0.107 0.004 0.164 0 1.679-1.361 3.040-3.040 3.040-0.058 0-0.115-0.002-0.172-0.005-0.752 0.040-1.496 0-2.256 0s-1.504 0-2.264 0c-0.007 0-0.016 0-0.025 0-0.875 0-1.67-0.344-2.256-0.905-0.549-0.582-0.887-1.37-0.887-2.237 0-0.020 0-0.040 0.001-0.061-0.040-0.757-0-1.501-0-2.261s0-1.504 0-2.264c-0-0.017-0.001-0.037-0.001-0.058 0-0.867 0.338-1.655 0.89-2.24 0.581-0.549 1.37-0.887 2.237-0.887 0.020 0 0.040 0 0.061 0.001 0.757-0.040 1.501-0 2.261-0s1.504 0 2.264 0c0.017-0 0.037-0.001 0.058-0.001 0.867 0 1.655 0.338 2.24 0.89 0.549 0.581 0.887 1.37 0.887 2.237 0 0.020-0 0.040-0.001 0.061 0.040 0.757 0 1.501 0 2.261s0.040 1.504 0 2.264zM12.8 11.72c-0.476 0.194-0.846 0.564-1.036 1.028-0.162 0.745-0.252 1.588-0.252 2.451 0 0.268 0.009 0.534 0.026 0.798-0.017 0.192-0.026 0.458-0.026 0.726 0 0.863 0.090 1.705 0.262 2.517 0.18 0.397 0.55 0.767 1.014 0.956 0.745 0.162 1.588 0.252 2.451 0.252 0.268 0 0.534-0.009 0.798-0.026 0.192 0.017 0.458 0.026 0.726 0.026 0.863 0 1.705-0.090 2.517-0.262 0.397-0.18 0.767-0.55 0.956-1.014 0.162-0.745 0.252-1.588 0.252-2.451 0-0.268-0.009-0.534-0.026-0.798 0.017-0.192 0.026-0.458 0.026-0.726 0-0.863-0.090-1.705-0.262-2.517-0.18-0.397-0.55-0.767-1.014-0.956-0.745-0.162-1.588-0.252-2.451-0.252-0.268 0-0.534 0.009-0.798 0.026-0.192-0.017-0.458-0.026-0.726-0.026-0.863 0-1.705 0.090-2.517 0.262zM16 18.808c-1.555 0-2.816-1.261-2.816-2.816s1.261-2.816 2.816-2.816c1.555 0 2.816 1.261 2.816 2.816 0 0.003 0 0.006 0 0.008s0 0.005 0 0.008c0 1.551-1.257 2.808-2.808 2.808-0.003 0-0.006 0-0.008 0zM16 14.168c-1.012 0-1.832 0.82-1.832 1.832s0.82 1.832 1.832 1.832c1.012 0 1.832-0.82 1.832-1.832s-0.82-1.832-1.832-1.832zM18.928 13.728c-0.362 0-0.656-0.294-0.656-0.656s0.294-0.656 0.656-0.656c0.362 0 0.656 0.294 0.656 0.656s-0.294 0.656-0.656 0.656z"></path>
</svg>