<?xml version="1.0" encoding="UTF-8" standalone="no"?>
<svg
   version="1.1"
   width="32"
   height="32"
   viewBox="0 0 32 32"
   xml:space="preserve"
   id="svg2"
   sodipodi:docname="icon-social-linkedin.svg"
   inkscape:version="1.3.2 (1:1.3.2+202404261509+091e20ef0f)"
   xmlns:inkscape="http://www.inkscape.org/namespaces/inkscape"
   xmlns:sodipodi="http://sodipodi.sourceforge.net/DTD/sodipodi-0.dtd"
   xmlns="http://www.w3.org/2000/svg"
   xmlns:svg="http://www.w3.org/2000/svg"><sodipodi:namedview
   id="namedview2"
   pagecolor="#ffffff"
   bordercolor="#000000"
   borderopacity="0.25"
   inkscape:showpageshadow="2"
   inkscape:pageopacity="0.0"
   inkscape:pagecheckerboard="0"
   inkscape:deskcolor="#d1d1d1"
   showguides="true"
   inkscape:zoom="17.854446"
   inkscape:cx="16.634512"
   inkscape:cy="17.530647"
   inkscape:window-width="1870"
   inkscape:window-height="1011"
   inkscape:window-x="0"
   inkscape:window-y="0"
   inkscape:window-maximized="1"
   inkscape:current-layer="svg2"><sodipodi:guide
     position="17.754681,16.485657"
     orientation="0,-1"
     id="guide2"
     inkscape:locked="false" /><sodipodi:guide
     position="15.458334,21.582427"
     orientation="1,0"
     id="guide3"
     inkscape:locked="false" /></sodipodi:namedview>

<defs
   id="defs1">
</defs>
<g
   style="opacity:1;fill:none;fill-rule:nonzero;stroke:none;stroke-width:0;stroke-linecap:butt;stroke-linejoin:miter;stroke-miterlimit:10;stroke-dasharray:none"
   transform="matrix(0.12907982,0,0,0.12907982,9.8464177,9.5539119)"
   id="g2">
	<path
   d="M 1.48,29.91 H 20.137 V 89.92 H 1.48 Z M 10.809,0.08 c 5.963,0 10.809,4.846 10.809,10.819 0,5.967 -4.846,10.813 -10.809,10.813 C 4.832,21.712 0,16.866 0,10.899 0,4.926 4.832,0.08 10.809,0.08"
   style="opacity:1;fill:#000000;fill-rule:nonzero;stroke:none;stroke-width:21.7695;stroke-linecap:butt;stroke-linejoin:miter;stroke-miterlimit:10;stroke-dasharray:none"
   stroke-linecap="round"
   id="path1" />
	<path
   d="m 31.835,29.91 h 17.89 v 8.206 h 0.255 c 2.49,-4.72 8.576,-9.692 17.647,-9.692 C 86.514,28.424 90,40.849 90,57.007 V 89.92 H 71.357 V 60.737 c 0,-6.961 -0.121,-15.912 -9.692,-15.912 -9.706,0 -11.187,7.587 -11.187,15.412 V 89.92 H 31.835 Z"
   style="opacity:1;fill:#000000;fill-rule:nonzero;stroke:none;stroke-width:21.7695;stroke-linecap:butt;stroke-linejoin:miter;stroke-miterlimit:10;stroke-dasharray:none"
   stroke-linecap="round"
   id="path2" />
</g>
</svg>
