<?xml version="1.0" encoding="UTF-8" standalone="no"?>
<!-- Uploaded to: SVG Repo, www.svgrepo.com, Generator: SVG Repo Mixer Tools -->

<svg
   fill="#000000"
   width="32"
   height="32"
   viewBox="0 0 0.96 0.96"
   xml:space="preserve"
   version="1.1"
   id="svg4"
   sodipodi:docname="tiktok.svg"
   inkscape:version="1.1.2 (0a00cf5339, 2022-02-04)"
   xmlns:inkscape="http://www.inkscape.org/namespaces/inkscape"
   xmlns:sodipodi="http://sodipodi.sourceforge.net/DTD/sodipodi-0.dtd"
   xmlns="http://www.w3.org/2000/svg"
   xmlns:svg="http://www.w3.org/2000/svg"><defs
     id="defs8" /><sodipodi:namedview
     id="namedview6"
     pagecolor="#ffffff"
     bordercolor="#666666"
     borderopacity="1.0"
     inkscape:pageshadow="2"
     inkscape:pageopacity="0.0"
     inkscape:pagecheckerboard="0"
     showgrid="false"
     inkscape:zoom="11.935962"
     inkscape:cx="16.295293"
     inkscape:cy="18.473584"
     inkscape:window-width="1866"
     inkscape:window-height="1016"
     inkscape:window-x="54"
     inkscape:window-y="27"
     inkscape:window-maximized="1"
     inkscape:current-layer="svg4" /><path
     d="m 0.60789616,0.39186073 a 0.07947872,0.07947872 0 0 1 -0.062515,-0.0703917 v -0.007313 h -0.0571258 v 0.22671235 a 0.04802219,0.04802219 0 0 1 -0.0862442,0.0289029 l -3.317e-5,-1.643e-5 3.317e-5,1.643e-5 a 0.04800561,0.04800561 0 0 1 0.0527812,-0.074786 v -0.058038 A 0.10494904,0.10494904 0 0 0 0.36534759,0.61424457 0.10496563,0.10496563 0 0 0 0.54538105,0.54088474 V 0.42504116 a 0.13567595,0.13567595 0 0 0 0.0791471,0.0253044 v -0.0567606 a 0.08010885,0.08010885 0 0 1 -0.016632,-0.001724 z"
     id="path2"
     style="stroke-width:0.0165823" /></svg>
