<?xml version="1.0" encoding="UTF-8" standalone="no"?>
<!-- Uploaded to: SVG Repo, www.svgrepo.com, Generator: SVG Repo Mixer Tools -->

<svg
   height="32"
   width="32"
   version="1.1"
   id="Capa_1"
   viewBox="0 0 2.32 2.32"
   xml:space="preserve"
   sodipodi:docname="whatsapp-color.svg"
   inkscape:version="1.1.2 (0a00cf5339, 2022-02-04)"
   xmlns:inkscape="http://www.inkscape.org/namespaces/inkscape"
   xmlns:sodipodi="http://sodipodi.sourceforge.net/DTD/sodipodi-0.dtd"
   xmlns="http://www.w3.org/2000/svg"
   xmlns:svg="http://www.w3.org/2000/svg"><defs
   id="defs11" /><sodipodi:namedview
   id="namedview9"
   pagecolor="#ffffff"
   bordercolor="#666666"
   borderopacity="1.0"
   inkscape:pageshadow="2"
   inkscape:pageopacity="0.0"
   inkscape:pagecheckerboard="0"
   showgrid="false"
   width="32px"
   inkscape:zoom="8.44"
   inkscape:cx="29.443128"
   inkscape:cy="22.21564"
   inkscape:window-width="1866"
   inkscape:window-height="1016"
   inkscape:window-x="54"
   inkscape:window-y="27"
   inkscape:window-maximized="1"
   inkscape:current-layer="Capa_1" />
<g
   id="g6"
   transform="matrix(0.01429609,0,0,0.01429609,0.74541339,0.74541339)">
	<path
   style="fill:#2cb742"
   d="M 0,58 4.988,43.037 C 2.457,38.78 1,33.812 1,28.5 1,12.76 13.76,0 29.5,0 45.24,0 58,12.76 58,28.5 58,44.24 45.24,57 29.5,57 24.711,57 20.201,55.813 16.24,53.727 Z"
   id="path2" />
	<path
   style="fill:#ffffff"
   d="m 47.683,37.985 c -1.316,-2.487 -6.169,-5.331 -6.169,-5.331 -1.098,-0.626 -2.423,-0.696 -3.049,0.42 0,0 -1.577,1.891 -1.978,2.163 -1.832,1.241 -3.529,1.193 -5.242,-0.52 l -3.981,-3.981 -3.981,-3.981 c -1.713,-1.713 -1.761,-3.41 -0.52,-5.242 0.272,-0.401 2.163,-1.978 2.163,-1.978 1.116,-0.627 1.046,-1.951 0.42,-3.049 0,0 -2.844,-4.853 -5.331,-6.169 -1.058,-0.56 -2.357,-0.364 -3.203,0.482 l -1.758,1.758 C 9.477,18.134 12.223,24.43 17.8,30.007 l 5.097,5.097 5.097,5.097 c 5.577,5.577 11.873,8.323 17.45,2.746 l 1.758,-1.758 c 0.846,-0.848 1.041,-2.147 0.481,-3.204 z"
   id="path4" />
</g>
</svg>
