<svg width="32" height="32" viewBox="0 0 32 32" version="1.1" xmlns="http://www.w3.org/2000/svg">
  <title>icon-social-youtube</title>
  <path d="M22.568 19.096c-0.13 0.684-0.681 1.207-1.368 1.295-1.197 0.118-2.579 0.185-3.976 0.185-0.292 0-0.584-0.003-0.875-0.009-0.204 0.006-0.496 0.009-0.788 0.009-1.397 0-2.779-0.067-4.142-0.198-0.525-0.072-1.079-0.597-1.209-1.273-0.141-0.765-0.221-1.635-0.221-2.523 0-0.205 0.004-0.409 0.013-0.613-0.007-0.122-0.010-0.299-0.010-0.476 0-0.916 0.088-1.812 0.255-2.679 0.116-0.595 0.667-1.119 1.354-1.207 1.197-0.118 2.579-0.185 3.976-0.185 0.292 0 0.584 0.003 0.875 0.009 0.204-0.006 0.496-0.009 0.788-0.009 1.397 0 2.779 0.067 4.142 0.197 0.525 0.072 1.079 0.597 1.209 1.273 0.141 0.765 0.221 1.635 0.221 2.523 0 0.205-0.004 0.409-0.013 0.613 0.007 0.122 0.010 0.299 0.010 0.476 0 0.916-0.088 1.812-0.255 2.679zM18.928 15.608l-3.656-2.288c-0.066-0.040-0.146-0.063-0.232-0.063s-0.166 0.024-0.234 0.065c-0.137 0.080-0.229 0.229-0.23 0.399v4.568c0.001 0.17 0.093 0.319 0.23 0.399 0.067 0.036 0.144 0.057 0.226 0.057 0.001 0 0.002 0 0.004 0 0.088 0 0.17-0.027 0.238-0.073l3.655-2.287c0.142-0.079 0.237-0.228 0.237-0.4s-0.095-0.321-0.235-0.399z"></path>
</svg>